HIERARCHY
ROOT mixamorig:Hips
{
	OFFSET 0.000000 201.639420 0.000000
	CHANNELS 6 Xposition Yposition Zposition Xrotation Yrotation Zrotation
	JOINT mixamorig:Spine
	{
		OFFSET 0.006200 19.524994 -2.481800
		CHANNELS 3 Xrotation Yrotation Zrotation
		JOINT mixamorig:Spine1
		{
			OFFSET -0.000900 22.835007 -2.825400
			CHANNELS 3 Xrotation Yrotation Zrotation
			JOINT mixamorig:Spine2
			{
				OFFSET -0.020600 26.552490 -3.193300
				CHANNELS 3 Xrotation Yrotation Zrotation
				JOINT mixamorig:Neck
				{
					OFFSET -0.060000 30.701813 1.352200
					CHANNELS 3 Xrotation Yrotation Zrotation
					JOINT mixamorig:Head
					{
						OFFSET -0.087200 22.547607 3.670900
						CHANNELS 3 Xrotation Yrotation Zrotation
						JOINT mixamorig:HeadTop_End
						{
							OFFSET -0.830600 40.355194 7.893500
							CHANNELS 3 Xrotation Yrotation Zrotation
							End Site
							{
								OFFSET 0.000000 30.592346 0.000000
							}
						}
						JOINT mixamorig:RightEye
						{
							OFFSET -6.302100 18.118591 16.197100
							CHANNELS 3 Xrotation Yrotation Zrotation
							End Site
							{
								OFFSET 0.000000 30.592346 0.000000
							}
						}
						JOINT mixamorig:LeftEye
						{
							OFFSET 6.741500 18.382690 16.401899
							CHANNELS 3 Xrotation Yrotation Zrotation
							End Site
							{
								OFFSET 0.000000 30.592346 0.000000
							}
						}
					}
				}
				JOINT mixamorig:LeftShoulder
				{
					OFFSET 11.924900 18.230499 1.425400
					CHANNELS 3 Xrotation Yrotation Zrotation
					JOINT mixamorig:LeftArm
					{
						OFFSET 25.435989 -0.697632 -5.229300
						CHANNELS 3 Xrotation Yrotation Zrotation
						JOINT mixamorig:LeftForeArm
						{
							OFFSET 54.684776 0.000000 0.000000
							CHANNELS 3 Xrotation Yrotation Zrotation
							JOINT mixamorig:LeftHand
							{
								OFFSET 55.098175 0.000000 0.000000
								CHANNELS 3 Xrotation Yrotation Zrotation
								JOINT mixamorig:LeftHandMiddle1
								{
									OFFSET 23.369751 0.000000 0.000000
									CHANNELS 3 Xrotation Yrotation Zrotation
									JOINT mixamorig:LeftHandMiddle2
									{
										OFFSET 6.378677 0.000000 0.000000
										CHANNELS 3 Xrotation Yrotation Zrotation
										JOINT mixamorig:LeftHandMiddle3
										{
											OFFSET 6.148331 0.000000 0.000000
											CHANNELS 3 Xrotation Yrotation Zrotation
											JOINT mixamorig:LeftHandMiddle4
											{
												OFFSET 6.582504 0.000000 0.000000
												CHANNELS 3 Xrotation Yrotation Zrotation
												End Site
												{
													OFFSET -1.168900 6.395691 1.028606
												}
											}
										}
									}
								}
								JOINT mixamorig:LeftHandThumb1
								{
									OFFSET 7.235672 -3.848206 5.434273
									CHANNELS 3 Xrotation Yrotation Zrotation
									JOINT mixamorig:LeftHandThumb2
									{
										OFFSET 6.568451 -3.792297 3.792300
										CHANNELS 3 Xrotation Yrotation Zrotation
										JOINT mixamorig:LeftHandThumb3
										{
											OFFSET 6.063080 -3.500519 3.500518
											CHANNELS 3 Xrotation Yrotation Zrotation
											JOINT mixamorig:LeftHandThumb4
											{
												OFFSET 4.793182 -2.767334 2.767349
												CHANNELS 3 Xrotation Yrotation Zrotation
												End Site
												{
													OFFSET 0.101639 6.054260 1.275483
												}
											}
										}
									}
								}
								JOINT mixamorig:LeftHandIndex1
								{
									OFFSET 23.101074 -0.309540 4.992809
									CHANNELS 3 Xrotation Yrotation Zrotation
									JOINT mixamorig:LeftHandIndex2
									{
										OFFSET 6.226883 0.000000 0.000000
										CHANNELS 3 Xrotation Yrotation Zrotation
										JOINT mixamorig:LeftHandIndex3
										{
											OFFSET 6.094330 0.000000 0.000000
											CHANNELS 3 Xrotation Yrotation Zrotation
											JOINT mixamorig:LeftHandIndex4
											{
												OFFSET 5.482605 0.000000 0.000000
												CHANNELS 3 Xrotation Yrotation Zrotation
												End Site
												{
													OFFSET -1.427902 5.233032 0.797164
												}
											}
										}
									}
								}
								JOINT mixamorig:LeftHandRing1
								{
									OFFSET 22.299240 0.021149 -3.964172
									CHANNELS 3 Xrotation Yrotation Zrotation
									JOINT mixamorig:LeftHandRing2
									{
										OFFSET 6.321869 0.000000 0.000000
										CHANNELS 3 Xrotation Yrotation Zrotation
										JOINT mixamorig:LeftHandRing3
										{
											OFFSET 5.899796 0.000000 0.000000
											CHANNELS 3 Xrotation Yrotation Zrotation
											JOINT mixamorig:LeftHandRing4
											{
												OFFSET 6.517899 0.000000 0.000000
												CHANNELS 3 Xrotation Yrotation Zrotation
												End Site
												{
													OFFSET -1.637299 6.232208 0.980890
												}
											}
										}
									}
								}
								JOINT mixamorig:LeftHandPinky1
								{
									OFFSET 20.463791 -0.302338 -8.562233
									CHANNELS 3 Xrotation Yrotation Zrotation
									JOINT mixamorig:LeftHandPinky2
									{
										OFFSET 6.908646 0.000000 0.000000
										CHANNELS 3 Xrotation Yrotation Zrotation
										JOINT mixamorig:LeftHandPinky3
										{
											OFFSET 4.622849 0.000000 0.000000
											CHANNELS 3 Xrotation Yrotation Zrotation
											JOINT mixamorig:LeftHandPinky4
											{
												OFFSET 5.216080 0.000000 0.000000
												CHANNELS 3 Xrotation Yrotation Zrotation
												End Site
												{
													OFFSET -0.606308 5.116241 0.814926
												}
											}
										}
									}
								}
							}
						}
					}
				}
				JOINT mixamorig:RightShoulder
				{
					OFFSET -12.001300 18.284088 1.348900
					CHANNELS 3 Xrotation Yrotation Zrotation
					JOINT mixamorig:RightArm
					{
						OFFSET -25.308500 -0.751312 -5.164599
						CHANNELS 3 Xrotation Yrotation Zrotation
						JOINT mixamorig:RightForeArm
						{
							OFFSET -54.684429 0.000000 0.000000
							CHANNELS 3 Xrotation Yrotation Zrotation
							JOINT mixamorig:RightHand
							{
								OFFSET -55.150291 0.000000 0.000000
								CHANNELS 3 Xrotation Yrotation Zrotation
								JOINT mixamorig:RightHandMiddle1
								{
									OFFSET -23.317566 0.000000 0.000000
									CHANNELS 3 Xrotation Yrotation Zrotation
									JOINT mixamorig:RightHandMiddle2
									{
										OFFSET -6.378403 0.000000 0.000000
										CHANNELS 3 Xrotation Yrotation Zrotation
										JOINT mixamorig:RightHandMiddle3
										{
											OFFSET -6.148193 0.000000 0.000000
											CHANNELS 3 Xrotation Yrotation Zrotation
											JOINT mixamorig:RightHandMiddle4
											{
												OFFSET -6.583389 0.000000 0.000000
												CHANNELS 3 Xrotation Yrotation Zrotation
												End Site
												{
													OFFSET 1.171692 6.395905 1.029786
												}
											}
										}
									}
								}
								JOINT mixamorig:RightHandThumb1
								{
									OFFSET -7.190521 -3.860474 5.435846
									CHANNELS 3 Xrotation Yrotation Zrotation
									JOINT mixamorig:RightHandThumb2
									{
										OFFSET -6.567429 -3.791718 3.791708
										CHANNELS 3 Xrotation Yrotation Zrotation
										JOINT mixamorig:RightHandThumb3
										{
											OFFSET -6.062469 -3.500153 3.500166
											CHANNELS 3 Xrotation Yrotation Zrotation
											JOINT mixamorig:RightHandThumb4
											{
												OFFSET -4.792618 -2.767029 2.767022
												CHANNELS 3 Xrotation Yrotation Zrotation
												End Site
												{
													OFFSET -0.100327 6.053253 1.276754
												}
											}
										}
									}
								}
								JOINT mixamorig:RightHandIndex1
								{
									OFFSET -23.048981 -0.310791 4.992554
									CHANNELS 3 Xrotation Yrotation Zrotation
									JOINT mixamorig:RightHandIndex2
									{
										OFFSET -6.227539 0.000000 0.000000
										CHANNELS 3 Xrotation Yrotation Zrotation
										JOINT mixamorig:RightHandIndex3
										{
											OFFSET -6.095047 0.000000 0.000000
											CHANNELS 3 Xrotation Yrotation Zrotation
											JOINT mixamorig:RightHandIndex4
											{
												OFFSET -5.484772 0.000000 0.000000
												CHANNELS 3 Xrotation Yrotation Zrotation
												End Site
												{
													OFFSET 1.420593 5.237305 0.797056
												}
											}
										}
									}
								}
								JOINT mixamorig:RightHandRing1
								{
									OFFSET -22.246323 0.020569 -3.963762
									CHANNELS 3 Xrotation Yrotation Zrotation
									JOINT mixamorig:RightHandRing2
									{
										OFFSET -6.322128 0.000000 0.000000
										CHANNELS 3 Xrotation Yrotation Zrotation
										JOINT mixamorig:RightHandRing3
										{
											OFFSET -5.900024 0.000000 0.000000
											CHANNELS 3 Xrotation Yrotation Zrotation
											JOINT mixamorig:RightHandRing4
											{
												OFFSET -6.518356 0.000000 0.000000
												CHANNELS 3 Xrotation Yrotation Zrotation
												End Site
												{
													OFFSET 1.636398 6.232697 0.982186
												}
											}
										}
									}
								}
								JOINT mixamorig:RightHandPinky1
								{
									OFFSET -20.411011 -0.303314 -8.561701
									CHANNELS 3 Xrotation Yrotation Zrotation
									JOINT mixamorig:RightHandPinky2
									{
										OFFSET -6.907349 0.000000 0.000000
										CHANNELS 3 Xrotation Yrotation Zrotation
										JOINT mixamorig:RightHandPinky3
										{
											OFFSET -4.623840 0.000000 0.000000
											CHANNELS 3 Xrotation Yrotation Zrotation
											JOINT mixamorig:RightHandPinky4
											{
												OFFSET -5.218353 0.000000 0.000000
												CHANNELS 3 Xrotation Yrotation Zrotation
												End Site
												{
													OFFSET 0.602097 5.118835 0.816273
												}
											}
										}
									}
								}
							}
						}
					}
				}
			}
		}
	}
	JOINT mixamorig:LeftUpLeg
	{
		OFFSET 18.168400 -13.561905 -0.039000
		CHANNELS 3 Xrotation Yrotation Zrotation
		JOINT mixamorig:LeftLeg
		{
			OFFSET 0.577358 -80.825211 -3.695000
			CHANNELS 3 Xrotation Yrotation Zrotation
			JOINT mixamorig:LeftFoot
			{
				OFFSET -0.577356 -83.370262 -6.520700
				CHANNELS 3 Xrotation Yrotation Zrotation
				JOINT mixamorig:LeftToeBase
				{
					OFFSET 0.750401 -20.798306 25.135401
					CHANNELS 3 Xrotation Yrotation Zrotation
					JOINT mixamorig:LeftToe_End
					{
						OFFSET -0.000500 0.001200 19.917799
						CHANNELS 3 Xrotation Yrotation Zrotation
						End Site
						{
							OFFSET 0.000000 19.917805 0.000000
						}
					}
				}
			}
		}
	}
	JOINT mixamorig:RightUpLeg
	{
		OFFSET -18.162500 -13.585098 -0.041000
		CHANNELS 3 Xrotation Yrotation Zrotation
		JOINT mixamorig:RightLeg
		{
			OFFSET -0.595024 -80.945297 -3.631900
			CHANNELS 3 Xrotation Yrotation Zrotation
			JOINT mixamorig:RightFoot
			{
				OFFSET 0.595024 -83.218193 -6.561200
				CHANNELS 3 Xrotation Yrotation Zrotation
				JOINT mixamorig:RightToeBase
				{
					OFFSET -0.753601 -20.807106 25.115000
					CHANNELS 3 Xrotation Yrotation Zrotation
					JOINT mixamorig:RightToe_End
					{
						OFFSET 0.000299 0.001700 19.918200
						CHANNELS 3 Xrotation Yrotation Zrotation
						End Site
						{
							OFFSET 0.000000 19.918203 0.000000
						}
					}
				}
			}
		}
	}
}
MOTION
Frames: 4
Frame Time: 0.033333
-24.846630 151.544495 314.922546 12.487208 37.597777 4.282272 -0.078863 1.972784 -4.653982 4.449407 5.558314 -6.960937 3.334553 5.294807 -6.459372 -28.318222 7.476811 -2.402077 -32.521854 -1.862296 -11.415788 -0.000002 -0.000002 -0.000000 -0.000002 -0.000002 -0.000000 -0.000002 -0.000002 -0.000000 -0.309169 -10.519614 -28.707295 11.467852 -13.705541 -25.181799 0.000010 -36.421062 0.000009 -42.901142 13.039391 27.883931 -5.100938 0.509204 -48.228143 2.022275 4.427690 -49.078454 0.048009 0.749263 -7.331900 0.000001 0.000003 -0.000002 -4.909117 -0.977848 13.683020 19.473170 -1.474865 7.636918 -4.536175 -9.613117 1.492984 0.000003 -0.000001 -0.000000 -2.192248 -1.733946 -23.485928 1.788812 4.214594 -45.980721 0.131247 1.234395 -12.138163 -0.000001 -0.000001 -0.000001 -0.617566 4.262991 -46.452298 3.089502 5.160363 -61.795863 0.189279 1.478576 -14.588878 -0.000000 0.000001 -0.000001 1.757203 6.595213 -54.237976 2.661163 4.907582 -56.917363 0.444467 2.240239 -22.441331 -0.000002 0.000003 0.000001 0.329821 -0.903843 4.993101 -41.482775 78.376107 79.446875 -0.000023 41.610564 0.000001 -54.281982 -21.212667 32.163470 -1.281305 -4.262088 59.529736 6.194620 -4.396626 109.295874 0.634208 -2.348178 30.223799 -0.000001 -0.000002 -0.000002 0.727234 -21.325515 7.047076 22.513711 -25.106022 -6.230391 -17.548207 -56.240908 -39.222792 0.000002 0.000001 0.000000 -3.870762 1.526132 36.376611 2.142793 -3.921313 57.294943 1.284395 -3.213334 43.565300 -0.000000 0.000000 0.000000 -5.002914 -2.421908 62.041996 5.407659 -4.596444 99.283288 2.121778 -3.907786 56.987127 0.000001 0.000002 -0.000001 -5.584755 -3.828132 71.656245 4.755793 -4.656126 91.214683 2.979502 -4.345111 68.864173 0.000000 0.000002 0.000000 -24.558563 -14.357802 -4.054112 73.376599 8.570407 9.503307 9.428456 14.784740 -1.453031 -34.613824 15.863229 -30.803446 0.000001 -0.000002 0.000001 -26.695683 -14.716602 1.163937 83.012282 -5.422931 6.135722 9.901146 -23.506931 8.013253 -53.854928 -5.026319 11.369143 -0.000001 0.000000 -0.000000 
-25.346817 136.692307 323.598145 12.902472 38.138321 5.874691 1.012880 2.217370 -5.568297 6.078021 5.822684 -6.853767 4.932511 5.650537 -6.347662 -27.457656 7.037578 -3.300126 -32.788087 -2.683083 -10.950055 -0.000003 0.000001 -0.000001 -0.000003 0.000001 -0.000001 -0.000003 0.000001 -0.000001 -0.320695 -10.531901 -28.714515 12.233917 -11.021279 -22.337420 0.000009 -49.353513 0.000018 -49.293076 19.313238 25.733503 -5.807641 0.837877 -52.783555 2.161343 4.544167 -50.856465 0.057934 0.822736 -8.055523 -0.000001 0.000001 -0.000001 -4.980513 -1.001049 13.805826 19.473166 -1.474869 7.636913 -4.536176 -9.613122 1.492984 0.000001 -0.000004 -0.000002 -2.356845 -1.615708 -25.110122 1.923230 4.340102 -47.782839 0.162359 1.371042 -13.506419 0.000002 0.000000 -0.000003 -0.564409 4.534593 -49.423717 3.254206 5.245028 -63.611908 0.229248 1.624364 -16.065126 0.000000 0.000002 0.000001 1.888466 6.717439 -56.300665 2.789105 4.988303 -58.400610 0.510680 2.394146 -24.078935 -0.000002 -0.000001 0.000004 0.357340 0.318800 6.139299 -19.580383 81.864346 51.793454 0.000007 44.588469 -0.000002 -56.042416 -16.690249 34.228854 -1.355589 -3.967292 57.820188 6.151319 -4.411494 108.732063 0.637315 -2.353507 30.299597 0.000003 -0.000001 -0.000000 -0.122968 -21.426218 6.876008 22.611698 -25.185599 -5.953301 -17.017954 -56.378345 -38.383177 -0.000002 0.000004 0.000001 -3.984884 1.213241 38.386015 2.160610 -3.932689 57.554924 1.306715 -3.236603 43.961966 0.000001 -0.000002 0.000000 -5.035686 -2.431809 62.219649 5.381016 -4.600686 98.951102 2.122284 -3.908112 56.994616 -0.000004 0.000000 0.000000 -5.629380 -3.669862 70.916741 4.772618 -4.655743 91.421980 2.995728 -4.351326 69.078402 0.000000 0.000000 0.000001 -29.566239 -15.603212 -7.383983 82.652584 9.351155 9.543244 20.506905 19.354586 -1.103174 8.113995 12.806413 33.652735 -0.000001 0.000001 -0.000001 -31.976630 -15.860423 -3.416609 94.232363 -4.766579 4.960770 19.651402 -11.821066 12.005679 -58.181409 -1.264536 2.616631 0.000001 0.000000 -0.000000 
-25.770428 124.187057 328.953796 12.895073 39.414744 6.402105 1.928038 2.214261 -4.954121 7.282197 6.130956 -6.711372 6.132374 5.830837 -6.227575 -25.829808 6.180374 -4.222101 -33.077718 -4.199906 -11.068761 0.000001 0.000000 0.000001 0.000001 0.000000 0.000001 0.000001 0.000000 0.000001 -0.320692 -10.531916 -28.714515 12.645967 -9.427849 -19.618206 -0.000002 -60.414970 -0.000002 -56.962237 27.549397 25.730190 -6.069740 1.370153 -56.222883 2.326589 4.673394 -52.912748 0.073279 0.924718 -9.062114 -0.000001 -0.000001 0.000001 -4.980512 -1.001061 13.805822 19.473168 -1.474872 7.636913 -4.536168 -9.613123 1.492978 -0.000002 0.000001 0.000002 -2.487690 -1.331951 -27.036933 2.073954 4.471845 -49.744619 0.201288 1.523954 -15.047289 -0.000002 -0.000001 -0.000003 -0.492504 4.806951 -52.231133 3.434899 5.330474 -65.572678 0.276094 1.778943 -17.642623 -0.000002 0.000002 0.000001 2.007152 6.826100 -58.256056 2.960598 5.089405 -60.352808 0.594838 2.574032 -26.020314 -0.000001 0.000002 0.000001 0.352910 1.763855 7.342944 23.271558 79.981543 3.435155 -0.000011 49.484755 0.000001 -58.712989 -12.996289 34.389483 -1.344366 -3.491571 54.223335 6.157280 -4.409469 108.809681 0.638586 -2.355694 30.330698 0.000001 -0.000002 0.000000 0.090525 -20.850906 7.171747 22.449625 -25.502156 -5.844715 -17.005252 -56.451360 -38.223299 -0.000002 -0.000001 -0.000001 -4.145154 1.077829 39.837481 2.180379 -3.945144 57.842803 1.335122 -3.265765 44.462906 0.000002 0.000001 -0.000001 -5.069590 -2.398761 62.152645 5.381571 -4.600619 98.957932 2.122775 -3.908429 57.001822 0.000001 0.000001 0.000002 -5.662406 -3.451820 69.830126 4.799560 -4.654985 91.753886 3.020711 -4.360771 69.407324 0.000000 0.000001 -0.000001 -33.525318 -17.873813 -9.878265 89.690438 9.859885 9.276175 30.450776 22.904117 -3.181773 9.489723 10.465456 31.844439 -0.000001 0.000001 -0.000001 -34.784962 -17.760807 -5.373285 101.893616 -4.208297 3.523779 27.590638 -3.223790 14.950823 2.384384 2.128083 6.736495 -0.000000 0.000000 0.000001 
-27.375870 110.962189 333.806885 14.046637 41.559946 5.639465 2.898655 2.119578 -3.506322 8.379070 6.679234 -6.697693 7.277351 6.257042 -6.258125 -23.746126 4.967049 -5.345108 -33.885897 -6.621497 -11.521657 -0.000000 -0.000003 0.000001 -0.000000 -0.000003 0.000001 -0.000000 -0.000003 0.000001 -0.320695 -10.531915 -28.714522 10.852123 -10.411882 -17.299208 0.000032 -67.540080 0.000026 -63.732543 33.107679 25.562007 -6.245408 1.932034 -59.377601 2.482785 4.787062 -54.806575 0.088779 1.017089 -9.976476 0.000001 -0.000002 0.000001 -4.980504 -1.001058 13.805830 19.473163 -1.474869 7.636913 -4.536172 -9.613122 1.492980 0.000004 0.000003 -0.000002 -2.592794 -1.056212 -28.798243 2.215921 4.587906 -51.542096 0.240361 1.662497 -16.452826 -0.000000 -0.000001 -0.000001 -0.406883 5.065375 -54.795749 3.602945 5.403335 -67.369154 0.322550 1.918802 -19.082220 -0.000001 -0.000001 0.000004 2.119656 6.925215 -60.046843 3.120573 5.176841 -62.140959 0.677200 2.736170 -27.798416 0.000000 -0.000001 0.000004 0.266026 3.126283 7.918366 38.996046 73.045697 -18.318320 -0.000034 55.563107 0.000027 -59.372376 -9.997668 31.741597 -1.500466 -3.850415 57.870403 6.090831 -4.431473 107.947383 0.641130 -2.360016 30.392276 -0.000003 -0.000000 -0.000000 0.341771 -19.724377 7.536999 22.027850 -26.147643 -5.795236 -18.381398 -56.485442 -39.602376 -0.000002 -0.000003 -0.000001 -4.398906 0.568823 43.240316 2.196948 -3.955498 58.083321 1.330011 -3.260544 44.373137 0.000001 -0.000001 -0.000004 -5.067404 -2.462615 62.511373 5.379358 -4.600963 98.930523 2.123180 -3.908695 57.007563 0.000003 -0.000000 0.000001 -5.668794 -3.459318 69.899343 4.897652 -4.650974 92.963143 3.111623 -4.393753 70.598181 -0.000003 0.000001 0.000001 -39.484009 -22.360637 -10.225130 98.798311 9.961552 6.394289 32.816593 21.887362 -3.536722 8.277116 6.440879 24.907606 0.000002 -0.000001 -0.000003 -35.878495 -21.260545 -2.726931 108.006519 -3.192668 2.165090 27.307919 2.628134 18.399370 -7.174515 0.398150 5.964623 -0.000000 0.000001 0.000001 
